<?xml version="1.0" ?><!DOCTYPE svg  PUBLIC '-//W3C//DTD SVG 1.1//EN'  'http://www.w3.org/Graphics/SVG/1.1/DTD/svg11.dtd'><svg height="64px" style="enable-background:new 0 0 64 64;" version="1.1" viewBox="0 0 64 64" width="64px" xml:space="preserve" xmlns="http://www.w3.org/2000/svg" xmlns:xlink="http://www.w3.org/1999/xlink"><g id="Livello_6"><g><circle cx="33.954" cy="31.688" r="30.126" style="fill:#015F7C;"/><circle cx="30.207" cy="32.312" r="30.126" style="fill:#007BB6;"/><g><circle cx="17" cy="16.143" r="4.387" style="fill:#FFFFFF;"/><path d="M42.676,48c0-2,0.008-2.604,0.001-3.922c-0.013-2.229,0.043-4.443-0.008-6.672     c-0.051-2.23,0.114-5.431-2.07-6.839c-0.513-0.331-1.764-0.489-2.371-0.489c-4.677,0-5.228,6.073-5.228,6.079V48h-7V24h7v2.798     c2-1.544,4.088-3.642,8.098-3.642c2.141,0,4.609,0.749,6.051,2.358c1.508,1.684,2.406,3.854,2.686,6.068     c0.23,1.839,0.282,3.698,0.288,5.547c0.011,3.357,0.062,6.681,0.074,10.038C50.197,47.457,50.231,47,50.233,48H42.676z" style="fill:#FFFFFF;"/><rect height="24" style="fill:#FFFFFF;" width="8" x="13" y="24"/></g></g></g><g id="Livello_1"/></svg>